{
	"asset":{
		"generator":"Khronos glTF Blender I/O v4.2.70",
		"version":"2.0"
	},
	"scene":0,
	"scenes":[
		{
			"name":"Scene",
			"nodes":[
				53
			]
		}
	],
	"nodes":[
		{
			"name":"Polo.Rodilla.R",
			"rotation":[
				-0.8632975220680237,
				1.3518493346964533e-07,
				2.216052337189467e-07,
				0.5046953558921814
			],
			"scale":[
				1,
				1.0000001192092896,
				1.000000238418579
			],
			"translation":[
				0.041311584413051605,
				0.1146523654460907,
				-0.49967190623283386
			]
		},
		{
			"children":[
				0
			],
			"name":"foot.IK.R",
			"rotation":[
				1.3372518026244506e-07,
				0.9673171043395996,
				-0.2535697817802429,
				9.95535856418428e-07
			],
			"translation":[
				0.14622649550437927,
				0.286662220954895,
				0.05815694108605385
			]
		},
		{
			"name":"Polo.Rodilla.L",
			"rotation":[
				-0.8632973432540894,
				-1.1318001469362571e-07,
				-1.9455303856830142e-07,
				0.5046956539154053
			],
			"translation":[
				-0.0413116030395031,
				0.1146523505449295,
				-0.4996718764305115
			]
		},
		{
			"children":[
				2
			],
			"name":"foot.IK.L",
			"rotation":[
				2.5463668862357736e-07,
				0.9673171043395996,
				-0.25356975197792053,
				5.342831173038576e-07
			],
			"translation":[
				-0.1462266892194748,
				0.286662220954895,
				0.05815647542476654
			]
		},
		{
			"name":"Polo.Codo.R",
			"rotation":[
				0.7451119422912598,
				0.05147068202495575,
				0.6632899641990662,
				0.046961892396211624
			],
			"scale":[
				0.9999998807907104,
				1,
				0.9999989867210388
			],
			"translation":[
				-0.004829582758247852,
				-0.3284650444984436,
				-0.31586387753486633
			]
		},
		{
			"children":[
				4
			],
			"name":"hand.IK.R",
			"rotation":[
				-0.4326220750808716,
				-0.49366721510887146,
				0.560080349445343,
				0.5054116249084473
			],
			"scale":[
				1,
				1,
				0.9999999403953552
			],
			"translation":[
				0.22996562719345093,
				0.3034566044807434,
				0.6918752193450928
			]
		},
		{
			"name":"Polo.Codo.L",
			"rotation":[
				0.7451120615005493,
				-0.05147072300314903,
				-0.6632898449897766,
				0.04696180671453476
			],
			"scale":[
				1,
				1,
				1.000001072883606
			],
			"translation":[
				0.004828566685318947,
				-0.32846397161483765,
				-0.31585511565208435
			]
		},
		{
			"children":[
				6
			],
			"name":"hand.IK.L",
			"rotation":[
				-0.4326210916042328,
				0.4936663806438446,
				-0.5600811243057251,
				0.5054123401641846
			],
			"scale":[
				1,
				0.9999998807907104,
				0.9999999403953552
			],
			"translation":[
				-0.2299678474664688,
				0.3034566044807434,
				0.6918744444847107
			]
		},
		{
			"name":"toe.L",
			"rotation":[
				-0.23512476682662964,
				1.1879967587447027e-06,
				-5.903181090616272e-07,
				0.9719651937484741
			],
			"scale":[
				1,
				0.9999998807907104,
				0.9999998807907104
			],
			"translation":[
				3.614675847529725e-08,
				0.09757407009601593,
				6.396362550731283e-09
			]
		},
		{
			"children":[
				8
			],
			"name":"foot.L",
			"rotation":[
				-0.5234576463699341,
				-0.029523387551307678,
				0.04425627365708351,
				0.8503892421722412
			],
			"scale":[
				1,
				1.0000001192092896,
				1
			],
			"translation":[
				2.8368958737701178e-08,
				0.38171884417533875,
				9.313225746154785e-10
			]
		},
		{
			"children":[
				9
			],
			"name":"shin.L",
			"rotation":[
				0.035378675907850266,
				0.008014216087758541,
				0.00411194609478116,
				0.999333381652832
			],
			"scale":[
				0.9999998807907104,
				1,
				0.9999998807907104
			],
			"translation":[
				-2.1635059965774417e-08,
				0.3347509503364563,
				2.0372681319713593e-09
			]
		},
		{
			"children":[
				10
			],
			"name":"thigh.L",
			"rotation":[
				0.9978208541870117,
				0.057178936898708344,
				-0.004000446293503046,
				0.032683342695236206
			],
			"scale":[
				0.9999891519546509,
				0.9999997615814209,
				0.9999966025352478
			],
			"translation":[
				0.06741049140691757,
				-0.05060747265815735,
				0.008854120038449764
			]
		},
		{
			"name":"toe.R",
			"rotation":[
				-0.2351248413324356,
				-1.1903986205652473e-06,
				5.86383407608082e-07,
				0.9719651937484741
			],
			"scale":[
				1,
				1.0000001192092896,
				1
			],
			"translation":[
				-5.6337654541493976e-09,
				0.09757407009601593,
				7.951825864438433e-10
			]
		},
		{
			"children":[
				12
			],
			"name":"foot.R",
			"rotation":[
				-0.5234743356704712,
				0.030883261933922768,
				-0.04461256042122841,
				0.8503120541572571
			],
			"scale":[
				1.0000001192092896,
				0.9999998807907104,
				0.9999999403953552
			],
			"translation":[
				-2.482556737959385e-08,
				0.38180261850357056,
				6.984919309616089e-10
			]
		},
		{
			"children":[
				13
			],
			"name":"shin.R",
			"rotation":[
				0.035371456295251846,
				-0.009022560901939869,
				-0.003129237564280629,
				0.99932861328125
			],
			"translation":[
				1.4715624274685979e-08,
				0.3347509503364563,
				5.529727786779404e-10
			]
		},
		{
			"children":[
				14
			],
			"name":"thigh.R",
			"rotation":[
				0.9978207945823669,
				-0.05717894434928894,
				0.004000841174274683,
				0.032683324068784714
			],
			"scale":[
				0.9999895095825195,
				0.9999997615814209,
				0.9999966621398926
			],
			"translation":[
				-0.06662889569997787,
				-0.05060747265815735,
				0.008854087442159653
			]
		},
		{
			"name":"shin.IK.L",
			"rotation":[
				0.035378675907850266,
				0.008014216087758541,
				0.00411194609478116,
				0.999333381652832
			],
			"scale":[
				0.9999998807907104,
				1,
				0.9999998807907104
			],
			"translation":[
				-2.1635059965774417e-08,
				0.3347509503364563,
				2.0372681319713593e-09
			]
		},
		{
			"children":[
				16
			],
			"name":"thigh.IK.L",
			"rotation":[
				0.9978208541870117,
				0.057178936898708344,
				-0.004000446293503046,
				0.032683342695236206
			],
			"scale":[
				0.9999891519546509,
				0.9999997615814209,
				0.9999966025352478
			],
			"translation":[
				0.06741049140691757,
				-0.05060747265815735,
				0.008854120038449764
			]
		},
		{
			"name":"shin.IK.R",
			"rotation":[
				0.035371456295251846,
				-0.009022560901939869,
				-0.003129237564280629,
				0.99932861328125
			],
			"translation":[
				1.4715624274685979e-08,
				0.3347509503364563,
				5.529727786779404e-10
			]
		},
		{
			"children":[
				18
			],
			"name":"thigh.IK.R",
			"rotation":[
				0.9978207945823669,
				-0.05717894434928894,
				0.004000841174274683,
				0.032683324068784714
			],
			"scale":[
				0.9999895095825195,
				0.9999997615814209,
				0.9999966621398926
			],
			"translation":[
				-0.06662889569997787,
				-0.05060747265815735,
				0.008854087442159653
			]
		},
		{
			"name":"shoulder.R",
			"rotation":[
				-0.557278037071228,
				0.45522454380989075,
				0.5166360139846802,
				0.4640033543109894
			],
			"scale":[
				0.9999998807907104,
				0.9999998807907104,
				0.9999999403953552
			],
			"translation":[
				-0.09831717610359192,
				0.23976658284664154,
				0.020228099077939987
			]
		},
		{
			"name":"hand.R",
			"rotation":[
				0.06251929700374603,
				-0.6947556734085083,
				0.04788966104388237,
				0.7149213552474976
			],
			"scale":[
				0.9999999403953552,
				0.9999999403953552,
				0.9999999403953552
			],
			"translation":[
				-1.0360963642597198e-08,
				0.28164198994636536,
				-6.05359673500061e-09
			]
		},
		{
			"children":[
				21
			],
			"name":"forearm.R",
			"rotation":[
				-0.001484207226894796,
				-0.1745973527431488,
				0.07538735121488571,
				0.981748640537262
			],
			"scale":[
				0.9999999403953552,
				1,
				0.9999999403953552
			],
			"translation":[
				2.6775524020195007e-08,
				0.3160944879055023,
				5.122274160385132e-09
			]
		},
		{
			"children":[
				22
			],
			"name":"upper_arm.R",
			"rotation":[
				-0.10131349414587021,
				-0.012392207980155945,
				0.9910354018211365,
				0.08620244264602661
			],
			"scale":[
				0.9999992251396179,
				0.9999999403953552,
				0.9999998807907104
			],
			"translation":[
				-0.17090463638305664,
				0.2283693253993988,
				0.016786575317382812
			]
		},
		{
			"name":"forearm.IK.R",
			"rotation":[
				-0.0014842376112937927,
				-0.17459732294082642,
				0.0753873959183693,
				0.9817485809326172
			],
			"scale":[
				0.9999998807907104,
				0.9999998807907104,
				0.9999999403953552
			],
			"translation":[
				-3.771856427192688e-08,
				0.3160945475101471,
				5.587935447692871e-09
			]
		},
		{
			"children":[
				24
			],
			"name":"upper_arm.IK.R",
			"rotation":[
				-0.10131359100341797,
				-0.012392193078994751,
				0.9910354018211365,
				0.0862024575471878
			],
			"scale":[
				0.9999984502792358,
				0.9999998807907104,
				0.9999998807907104
			],
			"translation":[
				-0.17162242531776428,
				0.22838175296783447,
				0.018164202570915222
			]
		},
		{
			"name":"head",
			"rotation":[
				0.023836541920900345,
				1.0585337654612489e-17,
				4.439613343448068e-16,
				0.9997158646583557
			],
			"scale":[
				1,
				0.9999998211860657,
				0.9999998807907104
			],
			"translation":[
				-1.2489466925946768e-15,
				0.34479644894599915,
				0.03148333728313446
			]
		},
		{
			"name":"neck",
			"rotation":[
				0.05072684586048126,
				2.252704968174248e-17,
				4.4351576854477145e-16,
				0.9987125992774963
			],
			"scale":[
				1,
				0.9999999403953552,
				0.9999999403953552
			],
			"translation":[
				-1.2421704290166424e-15,
				0.3372114300727844,
				0.030559347942471504
			]
		},
		{
			"name":"shoulder.L",
			"rotation":[
				-0.5208883285522461,
				-0.4224764108657837,
				-0.5535984635353088,
				0.49367785453796387
			],
			"scale":[
				0.9999999403953552,
				1,
				1
			],
			"translation":[
				0.09830214828252792,
				0.2398177534341812,
				0.020210765302181244
			]
		},
		{
			"name":"hand.L",
			"rotation":[
				0.06251929700374603,
				0.6947556734085083,
				-0.04788966104388237,
				0.7149213552474976
			],
			"scale":[
				0.9999999403953552,
				0.9999999403953552,
				0.9999999403953552
			],
			"translation":[
				2.5262124836444855e-08,
				0.28164198994636536,
				-4.656612873077393e-10
			]
		},
		{
			"children":[
				29
			],
			"name":"forearm.L",
			"rotation":[
				-0.001484207226894796,
				0.1745973527431488,
				-0.07538735121488571,
				0.981748640537262
			],
			"scale":[
				0.9999999403953552,
				1,
				0.9999999403953552
			],
			"translation":[
				-1.1874362826347351e-08,
				0.3160945177078247,
				8.847564458847046e-09
			]
		},
		{
			"children":[
				30
			],
			"name":"upper_arm.L",
			"rotation":[
				-0.10131349414587021,
				0.012392207980155945,
				-0.9910354018211365,
				0.08620244264602661
			],
			"scale":[
				0.9999992251396179,
				0.9999999403953552,
				0.9999998807907104
			],
			"translation":[
				0.17090465128421783,
				0.2283693253993988,
				0.016786575317382812
			]
		},
		{
			"name":"forearm.IK.L",
			"rotation":[
				-0.001484207226894796,
				0.1745973527431488,
				-0.07538735121488571,
				0.981748640537262
			],
			"scale":[
				0.9999999403953552,
				1,
				0.9999999403953552
			],
			"translation":[
				-1.1874362826347351e-08,
				0.3160945177078247,
				8.847564458847046e-09
			]
		},
		{
			"children":[
				32
			],
			"name":"upper_arm.IK.L",
			"rotation":[
				-0.10131349414587021,
				0.012392207980155945,
				-0.9910354018211365,
				0.08620244264602661
			],
			"scale":[
				0.9999992251396179,
				0.9999999403953552,
				0.9999998807907104
			],
			"translation":[
				0.17090465128421783,
				0.2283693253993988,
				0.016786575317382812
			]
		},
		{
			"name":"hand.FK.R",
			"rotation":[
				0.06251929700374603,
				-0.6947556734085083,
				0.04788966104388237,
				0.7149213552474976
			],
			"scale":[
				0.9999999403953552,
				0.9999999403953552,
				0.9999999403953552
			],
			"translation":[
				-1.0360963642597198e-08,
				0.28164198994636536,
				-6.05359673500061e-09
			]
		},
		{
			"children":[
				34
			],
			"name":"forearm.FK.R",
			"rotation":[
				-0.001484207226894796,
				-0.1745973527431488,
				0.07538735121488571,
				0.981748640537262
			],
			"scale":[
				0.9999999403953552,
				1,
				0.9999999403953552
			],
			"translation":[
				2.6775524020195007e-08,
				0.3160944879055023,
				5.122274160385132e-09
			]
		},
		{
			"children":[
				35
			],
			"name":"upper_arm.FK.R",
			"rotation":[
				-0.10131349414587021,
				-0.012392207980155945,
				0.9910354018211365,
				0.08620244264602661
			],
			"scale":[
				0.9999992251396179,
				0.9999999403953552,
				0.9999998807907104
			],
			"translation":[
				-0.17090463638305664,
				0.2283693253993988,
				0.016786575317382812
			]
		},
		{
			"name":"hand.FK.L",
			"rotation":[
				0.06251929700374603,
				0.6947556734085083,
				-0.04788966104388237,
				0.7149213552474976
			],
			"scale":[
				0.9999999403953552,
				0.9999999403953552,
				0.9999999403953552
			],
			"translation":[
				2.5262124836444855e-08,
				0.28164198994636536,
				-4.656612873077393e-10
			]
		},
		{
			"children":[
				37
			],
			"name":"forearm.FK.L",
			"rotation":[
				-0.001484207226894796,
				0.1745973527431488,
				-0.07538735121488571,
				0.981748640537262
			],
			"scale":[
				0.9999999403953552,
				1,
				0.9999999403953552
			],
			"translation":[
				-1.1874362826347351e-08,
				0.3160945177078247,
				8.847564458847046e-09
			]
		},
		{
			"children":[
				38
			],
			"name":"upper_arm.FK.L",
			"rotation":[
				-0.10131349414587021,
				0.012392207980155945,
				-0.9910354018211365,
				0.08620244264602661
			],
			"scale":[
				0.9999992251396179,
				0.9999999403953552,
				0.9999998807907104
			],
			"translation":[
				0.17090465128421783,
				0.2283693253993988,
				0.016786575317382812
			]
		},
		{
			"children":[
				20,
				23,
				25,
				26,
				27,
				28,
				31,
				33,
				36,
				39
			],
			"name":"chest",
			"rotation":[
				-0.017747920006513596,
				-7.87723948292296e-08,
				-1.3982663915612648e-09,
				0.9998425245285034
			],
			"scale":[
				1,
				0.9999999403953552,
				0.9999999403953552
			],
			"translation":[
				2.2140213273846854e-11,
				0.0002481400442775339,
				-0.00022609697771258652
			]
		},
		{
			"children":[
				40
			],
			"name":"spine",
			"rotation":[
				-0.021397309377789497,
				-4.4368690055307525e-08,
				-4.320984015038221e-09,
				0.9997711181640625
			],
			"translation":[
				3.820849747704358e-10,
				0.23532229661941528,
				-0.0015010014176368713
			]
		},
		{
			"name":"foot.FK.L",
			"rotation":[
				-0.5234576463699341,
				-0.029523387551307678,
				0.04425627365708351,
				0.8503892421722412
			],
			"scale":[
				1,
				1.0000001192092896,
				1
			],
			"translation":[
				2.8368958737701178e-08,
				0.38171884417533875,
				9.313225746154785e-10
			]
		},
		{
			"children":[
				42
			],
			"name":"shin.FK.L",
			"rotation":[
				0.035378675907850266,
				0.008014216087758541,
				0.00411194609478116,
				0.999333381652832
			],
			"scale":[
				0.9999998807907104,
				1,
				0.9999998807907104
			],
			"translation":[
				-2.1635059965774417e-08,
				0.3347509503364563,
				2.0372681319713593e-09
			]
		},
		{
			"children":[
				43
			],
			"name":"thigh.FK.L",
			"rotation":[
				0.9978208541870117,
				0.057178936898708344,
				-0.004000446293503046,
				0.032683342695236206
			],
			"scale":[
				0.9999891519546509,
				0.9999997615814209,
				0.9999966025352478
			],
			"translation":[
				0.06741049140691757,
				-0.05060747265815735,
				0.008854120038449764
			]
		},
		{
			"name":"foot.FK.R",
			"rotation":[
				-0.5234743356704712,
				0.030883261933922768,
				-0.04461256042122841,
				0.8503120541572571
			],
			"scale":[
				1.0000001192092896,
				0.9999998807907104,
				0.9999999403953552
			],
			"translation":[
				-2.482556737959385e-08,
				0.38180261850357056,
				6.984919309616089e-10
			]
		},
		{
			"children":[
				45
			],
			"name":"shin.FK.R",
			"rotation":[
				0.035371456295251846,
				-0.009022560901939869,
				-0.003129237564280629,
				0.99932861328125
			],
			"translation":[
				1.4715624274685979e-08,
				0.3347509503364563,
				5.529727786779404e-10
			]
		},
		{
			"children":[
				46
			],
			"name":"thigh.FK.R",
			"rotation":[
				0.9978207945823669,
				-0.05717894434928894,
				0.004000841174274683,
				0.032683324068784714
			],
			"scale":[
				0.9999895095825195,
				0.9999997615814209,
				0.9999966621398926
			],
			"translation":[
				-0.06662889569997787,
				-0.05060747265815735,
				0.008854087442159653
			]
		},
		{
			"name":"Cabeza.Femur.R",
			"rotation":[
				0.9997320771217346,
				-0.008632625453174114,
				-0.008298679254949093,
				0.019809508696198463
			],
			"scale":[
				1.0000001192092896,
				1.0000001192092896,
				1.0000007152557373
			],
			"translation":[
				-0.06554366648197174,
				0.018773753196001053,
				0.006115327123552561
			]
		},
		{
			"name":"Cabeza.Femur.L",
			"rotation":[
				0.9997320771217346,
				0.008632629178464413,
				0.008298933506011963,
				0.019809512421488762
			],
			"scale":[
				1,
				1.0000001192092896,
				1.0000007152557373
			],
			"translation":[
				0.06632526218891144,
				0.018773753196001053,
				0.006115359719842672
			]
		},
		{
			"children":[
				11,
				15,
				17,
				19,
				41,
				44,
				47,
				48,
				49
			],
			"name":"hips",
			"rotation":[
				-6.361483428918291e-07,
				0.720870316028595,
				0.6930699944496155,
				4.840963470087445e-07
			],
			"scale":[
				1,
				1.0000001192092896,
				1
			],
			"translation":[
				-1.3044258366790018e-06,
				0.2883666157722473,
				0.8206877112388611
			]
		},
		{
			"children":[
				1,
				3,
				5,
				7,
				50
			],
			"name":"Bone",
			"rotation":[
				5.619423291136627e-07,
				-0.7071067690849304,
				-0.7071067690849304,
				5.619433522952022e-07
			],
			"translation":[
				-0.0003907955251634121,
				0.006032443605363369,
				-0.29621702432632446
			]
		},
		{
			"mesh":0,
			"name":"Mu\u00f1eco",
			"skin":0
		},
		{
			"children":[
				52,
				51
			],
			"name":"Armadura Hombre"
		}
	],
	"materials":[
		{
			"doubleSided":true,
			"name":"Cuerpo.Hombre"
		},
		{
			"doubleSided":true,
			"name":"Tornillos"
		}
	],
	"meshes":[
		{
			"name":"Cylinder.000",
			"primitives":[
				{
					"attributes":{
						"POSITION":0,
						"NORMAL":1,
						"TEXCOORD_0":2,
						"JOINTS_0":3,
						"WEIGHTS_0":4
					},
					"indices":5,
					"material":0
				},
				{
					"attributes":{
						"POSITION":6,
						"NORMAL":7,
						"TEXCOORD_0":8,
						"JOINTS_0":9,
						"WEIGHTS_0":10
					},
					"indices":11,
					"material":1
				}
			]
		}
	],
	"skins":[
		{
			"inverseBindMatrices":12,
			"joints":[
				51,
				1,
				0,
				3,
				2,
				5,
				4,
				7,
				6,
				50,
				11,
				10,
				9,
				8,
				15,
				14,
				13,
				12,
				17,
				16,
				19,
				18,
				41,
				40,
				20,
				23,
				22,
				21,
				25,
				24,
				26,
				27,
				28,
				31,
				30,
				29,
				33,
				32,
				36,
				35,
				34,
				39,
				38,
				37,
				44,
				43,
				42,
				47,
				46,
				45,
				48,
				49
			],
			"name":"Armadura Hombre"
		}
	],
	"accessors":[
		{
			"bufferView":0,
			"componentType":5126,
			"count":4402,
			"max":[
				0.26909339427948,
				1.699867606163025,
				0.19374066591262817
			],
			"min":[
				-0.2698749601840973,
				5.355117900762707e-05,
				-0.10243423283100128
			],
			"type":"VEC3"
		},
		{
			"bufferView":1,
			"componentType":5126,
			"count":4402,
			"type":"VEC3"
		},
		{
			"bufferView":2,
			"componentType":5126,
			"count":4402,
			"type":"VEC2"
		},
		{
			"bufferView":3,
			"componentType":5121,
			"count":4402,
			"type":"VEC4"
		},
		{
			"bufferView":4,
			"componentType":5126,
			"count":4402,
			"type":"VEC4"
		},
		{
			"bufferView":5,
			"componentType":5123,
			"count":19512,
			"type":"SCALAR"
		},
		{
			"bufferView":6,
			"componentType":5126,
			"count":1992,
			"max":[
				0.23976166546344757,
				1.304586410522461,
				0.05699688941240311
			],
			"min":[
				-0.24054324626922607,
				0.04953871667385101,
				-0.03267834708094597
			],
			"type":"VEC3"
		},
		{
			"bufferView":7,
			"componentType":5126,
			"count":1992,
			"type":"VEC3"
		},
		{
			"bufferView":8,
			"componentType":5126,
			"count":1992,
			"type":"VEC2"
		},
		{
			"bufferView":9,
			"componentType":5121,
			"count":1992,
			"type":"VEC4"
		},
		{
			"bufferView":10,
			"componentType":5126,
			"count":1992,
			"type":"VEC4"
		},
		{
			"bufferView":11,
			"componentType":5123,
			"count":11808,
			"type":"SCALAR"
		},
		{
			"bufferView":12,
			"componentType":5126,
			"count":52,
			"type":"MAT4"
		}
	],
	"bufferViews":[
		{
			"buffer":0,
			"byteLength":52824,
			"byteOffset":0,
			"target":34962
		},
		{
			"buffer":0,
			"byteLength":52824,
			"byteOffset":52824,
			"target":34962
		},
		{
			"buffer":0,
			"byteLength":35216,
			"byteOffset":105648,
			"target":34962
		},
		{
			"buffer":0,
			"byteLength":17608,
			"byteOffset":140864,
			"target":34962
		},
		{
			"buffer":0,
			"byteLength":70432,
			"byteOffset":158472,
			"target":34962
		},
		{
			"buffer":0,
			"byteLength":39024,
			"byteOffset":228904,
			"target":34963
		},
		{
			"buffer":0,
			"byteLength":23904,
			"byteOffset":267928,
			"target":34962
		},
		{
			"buffer":0,
			"byteLength":23904,
			"byteOffset":291832,
			"target":34962
		},
		{
			"buffer":0,
			"byteLength":15936,
			"byteOffset":315736,
			"target":34962
		},
		{
			"buffer":0,
			"byteLength":7968,
			"byteOffset":331672,
			"target":34962
		},
		{
			"buffer":0,
			"byteLength":31872,
			"byteOffset":339640,
			"target":34962
		},
		{
			"buffer":0,
			"byteLength":23616,
			"byteOffset":371512,
			"target":34963
		},
		{
			"buffer":0,
			"byteLength":3328,
			"byteOffset":395128
		}
	],
	"buffers":[
		{
			"byteLength":398456,
			"uri":"WoodManequin.bin"
		}
	]
}
