<svg xmlns="http://www.w3.org/2000/svg" version="1.1" xmlns:xlink="http://www.w3.org/1999/xlink" width="2000" height="1500" viewBox="0 0 2000 1500"><rect width="2000" height="1500" x="0" y="0" id="background" stroke="transparent" fill="#ffffff"></rect><svg xml:space="preserve" width="1500" height="1125" data-version="2" data-id="lg_4KyI4QeVpypptlGZHP" viewBox="0 0 565 361" x="250" y="187.5"><rect width="100%" height="100%" fill="transparent"></rect><path d="M62.045 352.157q.64.74.64 1.59 0 .85-1.22 1.75t-2.17.9q-.96 0-1.7-.95l-24.59-31.27-12.93 15.05v14.63q0 1.06-.85 1.75t-2.01.69q-1.17 0-2.02-.69-.85-.69-.85-1.75v-58.09h-6.25q-1.06 0-1.75-.69t-.69-1.75q0-1.06.69-1.8t1.75-.74h9.22q2.76 0 2.76 2.54v37.95l30.21-35.51h-2.65q-1.06 0-1.75-.69t-.69-1.75q0-1.06.69-1.8t1.75-.74h15.26q1.06 0 1.75.74t.69 1.8q0 1.06-.69 1.75t-1.75.69h-5.51l-20.67 24.17Z"></path><rect width="59.68" height="65.61" x="-29.84" y="-32.8" fill="none" rx="0" ry="0" transform="translate(36 324.1)"></rect><path d="M121.725 343.997v8.8q0 2.44-2.44 2.44h-40.06q-1.81 0-2.39-.64-.58-.64-.58-1.91v-56.92h-6.26q-1.06 0-1.74-.69-.69-.69-.69-1.75t.69-1.8q.68-.74 1.74-.74h18.24q1.06 0 1.75.74.68.74.68 1.8t-.68 1.75q-.69.69-1.75.69h-6.26v54.48h34.03v-6.25q0-1.06.85-1.75.84-.69 2.01-.69t2.01.69q.85.69.85 1.75"></path><rect width="54.16" height="64.45" x="-27.08" y="-32.23" fill="none" rx="0" ry="0" transform="translate(95.14 323.51)"></rect><path d="m156.385 298.307-15.37 31.8h30.85Zm-9.01-7.52h9.44q1.69 0 2.33 1.27l30 60.63q.21.43.21.96 0 1.8-1.7 2.43-.63.22-1.16.22-1.8 0-2.44-1.38l-9.86-19.93h-35.51l-9.86 19.93q-.95 2.12-3.6 1.16-1.7-.63-1.7-2.33 0-.42.22-.95l28.19-57.03h-4.56q-1.06 0-1.74-.69-.69-.69-.69-1.75t.69-1.8q.68-.74 1.74-.74"></path><rect width="65.83" height="65.91" x="-32.91" y="-32.95" fill="none" rx="0" ry="0" transform="translate(156.94 324.24)"></rect><path d="M200.805 350.247v-54.48h-6.26q-1.06 0-1.74-.69-.69-.69-.69-1.75t.69-1.8q.68-.74 1.74-.74h18.24q1.06 0 1.75.74.68.74.68 1.8t-.68 1.75q-.69.69-1.75.69h-6.26v54.48h6.26q1.06 0 1.75.69.68.69.68 1.75t-.68 1.8q-.69.75-1.75.75h-18.24q-1.06 0-1.74-.75-.69-.74-.69-1.8t.69-1.75q.68-.69 1.74-.69Z"></path><rect width="23.1" height="64.45" x="-11.55" y="-32.23" fill="none" rx="0" ry="0" transform="translate(204.16 323.51)"></rect><path d="M229.215 353.857v-58.09h-6.36q-1.06 0-1.75-.69t-.69-1.75q0-1.06.69-1.8t1.75-.74h8.79q1.7 0 2.76 1.27l26.61 36.36 26.5-36.25q.95-1.38 2.65-1.38h9.01q1.06 0 1.75.74.68.74.68 1.8t-.68 1.75q-.69.69-1.75.69h-6.36v52.89q0 1.59 2.43 1.59h3.93q1.06 0 1.75.75.68.74.68 1.8t-.68 1.75q-.69.69-1.75.69h-3.93q-8.16 0-8.16-6.58v-46.74l-23.74 32.43q-.85 1.17-2.33 1.17-1.49 0-2.34-1.17l-23.74-32.43v51.94q0 1.06-.85 1.75t-2.01.69q-1.17 0-2.02-.69-.84-.69-.84-1.75"></path><rect width="81.19" height="65.51" x="-40.59" y="-32.76" fill="none" rx="0" ry="0" transform="translate(261.51 324.04)"></rect><path d="M332.875 353.857v-58.09h-20.98v6.25q0 1.06-.85 1.75t-2.02.69q-1.16 0-2.01-.69-.85-.69-.85-1.75v-8.69q0-1.06.85-1.8t1.91-.74h53.53q1.16 0 2.01.74.85.74.85 1.8v8.69q0 1.06-.85 1.75t-2.01.69q-1.17 0-2.02-.69-.84-.69-.84-1.75v-6.25h-20.99v58.09q0 1.06-.85 1.75t-2.01.69q-1.17 0-2.02-.69-.85-.69-.85-1.75"></path><rect width="59.15" height="65.51" x="-29.57" y="-32.76" fill="none" rx="0" ry="0" transform="translate(336.24 324.04)"></rect><path d="M383.335 295.767v29.89h21.2q17.49 0 17.49-15.05 0-7.95-4.4-11.4-4.4-3.44-13.09-3.44Zm0 34.77v23.32q0 1.06-.85 1.75t-2.01.69q-1.17 0-2.02-.69-.84-.69-.84-1.75v-58.09h-6.36q-1.06 0-1.75-.69t-.69-1.75q0-1.06.69-1.8t1.75-.74h33.28q23.21 0 23.21 19.82 0 14.31-12.61 18.44l13.67 23.64q.22.43.22.96 0 1.48-1.22 2.12-1.22.63-2.18.63-.95 0-1.69-1.16l-14.52-24.91q-2.76.21-4.88.21Z"></path><rect width="60.21" height="65.61" x="-30.11" y="-32.8" fill="none" rx="0" ry="0" transform="translate(399.42 324.1)"></rect><path d="M438.565 290.787h49.71q2.76 0 2.76 2.54v8.69q0 1.06-.85 1.75t-2.02.69q-1.16 0-2.01-.69-.85-.69-.85-1.75v-6.25h-34.77v24.59h29.9v-3.92q0-1.06.79-1.75.8-.69 1.96-.69 1.17 0 1.96.69.8.69.8 1.75v12.93q0 1.06-.8 1.75-.79.69-1.96.69-1.16 0-1.96-.69-.79-.69-.79-1.75v-4.03h-29.9v24.91h37.63q1.28 0 2.07.69.8.69.8 1.75t-.85 1.8q-.85.75-2.02.75h-40.7q-2.65 0-2.65-2.34v-57.13h-6.25q-1.06 0-1.75-.69t-.69-1.75q0-1.06.69-1.8t1.75-.74"></path><rect width="54.91" height="64.45" x="-27.45" y="-32.23" fill="none" rx="0" ry="0" transform="translate(464.08 323.51)"></rect><path d="M529.615 354.177q-.85 1.59-2.65 1.59-1.8 0-2.54-1.49l-28.73-61.05q-.21-.53-.21-.96 0-1.69 1.69-2.33.64-.21 1.17-.21 1.8 0 2.44 1.38l26.18 56.18 26.08-56.18q.63-1.38 1.8-1.38 2.54 0 3.28 1.69.22.43.22.96t-.22.95Z"></path><rect width="62.86" height="66.04" x="-31.43" y="-33.02" fill="none" rx="0" ry="0" transform="translate(527.41 323.25)"></rect><circle r="104.24" fill="none" stroke="#000" transform="translate(281.15 114.24)scale(1.0591)"></circle><path d="M245.505 139.977q-5.34 0-5.34-7.58 0-2.25.85-3.94 5.06-17.42 17.7-46.08 7.87-18.83 14.47-32.18 6.61-13.34 11.94-21.21 8.72-12.93 19.11-12.93 7.59 0 7.59 8.99 0 3.94-1.69 8.72-7.58 23.6-43.55 55.35.28 1.97.56 3.8.28 1.82.84 4.07 3.09-3.93 6.19-7.73 3.09-3.79 6.18-7.44 8.43-9 16.01-9 3.94 0 6.33 2.53t2.39 5.9q0 2.25-.99 4.5-.98 2.25-2.67 2.25-1.68 0-1.96-2.81-.85-5.34-5.91-5.34-7.3 0-16.57 10.68-2.25 2.81-4.22 5.34-1.97 2.53-3.65 4.77 3.93 12.37 10.68 19.95 8.43 9.56 17.98 9.56 5.34 0 10.12-2.81 7.58-3.94 16.01-12.65 1.97-1.96 2.81-1.96.85.28.85 1.4 0 .84-.85 2.25-7.58 7.59-17.7 13.21-11.8 6.74-19.67 6.74-7.87 0-15.46-8.15-6.74-7.02-11.52-17.42-2.81 4.5-5.76 11.52-2.95 7.03-6.6 16.3-2.81 1.4-4.5 1.4m19.95-53.39q5.62-5.62 11.1-11.8 5.48-6.18 10.82-13.21 12.37-16.86 16.86-28.38 2.25-5.9 2.25-8.43 0-4.49-3.09-4.49-4.78 0-10.96 10.39-7.59 13.21-14.33 27.26t-12.65 28.66m-16.01 43q2.81-6.19 5.76-11.66 2.95-5.48 5.76-10.26l-2.25-7.03q-8.15 17.71-9.27 28.95"></path><rect width="87.4" height="123.92" x="-43.7" y="-61.96" fill="none" rx="0" ry="0" transform="translate(284.37 78.52)"></rect></svg></svg>